normalP10_grf.mot
version=1
nRows=15
nColumns=19
inDegrees=yes
endheader
time	1_ground_force_vx	1_ground_force_vy	1_ground_force_vz	1_ground_force_px	1_ground_force_py	1_ground_force_pz	1_ground_torque_x	1_ground_torque_y	1_ground_torque_z	2_ground_force_vx	2_ground_force_vy	2_ground_force_vz	2_ground_force_px	2_ground_force_py	2_ground_force_pz	2_ground_torque_x	2_ground_torque_y	2_ground_torque_z
            1.300000	         -151.267465	          646.800152	           13.594030	            0.141059	            0.003471	           -0.321502	           -0.651293	            2.784846	            0.058530	            0.054363	           -0.167716	           -0.025630	            0.905632	            0.000990	           -0.250706	            0.001808	            0.011423	           -0.037748
            1.301000	         -151.190413	          650.706605	           14.871401	            0.141015	            0.003472	           -0.321528	           -0.663565	            2.855909	            0.065270	            0.008159	           -0.248274	           -0.033763	            0.905632	            0.000990	           -0.250706	           -0.082286	            0.005561	           -0.016883
            1.302000	         -151.093362	          655.809545	           16.029954	            0.141230	            0.003471	           -0.321746	           -0.669682	            2.906706	            0.071049	            0.046213	           -0.327780	            0.004333	            0.905632	            0.000990	           -0.250706	            0.035146	            0.010325	            0.045605
            1.303000	         -151.017704	          659.398162	           17.061030	            0.141109	            0.003472	           -0.321803	           -0.680658	            2.971999	            0.076896	            0.069513	           -0.248689	           -0.064611	            0.905632	            0.000990	           -0.250706	           -0.082396	           -0.000348	            0.066224
            1.304000	         -150.862187	          663.782940	           18.217225	            0.141306	            0.003472	           -0.321914	           -0.684881	            3.013426	            0.082702	            0.046670	           -0.168865	           -0.010376	            0.905632	            0.000990	           -0.250706	           -0.065532	            0.004746	            0.086914
            1.305000	         -150.716937	          667.530780	           19.195279	            0.141100	            0.003473	           -0.322052	           -0.695240	            3.079244	            0.088546	            0.039355	           -0.008536	            0.036416	            0.905632	            0.000990	           -0.250706	            0.035086	            0.009979	            0.128776
            1.306000	         -150.674189	          672.394916	           20.100310	            0.141530	            0.003471	           -0.322123	           -0.709298	            3.165298	            0.094622	           -0.015306	           -0.407874	            0.027046	            0.905632	            0.000990	           -0.250706	            0.018173	           -0.003785	            0.066515
            1.307000	         -150.734170	          676.540250	           21.224969	            0.141818	            0.003471	           -0.322329	           -0.712587	            3.198306	            0.100340	            0.000481	           -0.247770	           -0.018558	            0.905632	            0.000990	           -0.250706	           -0.015258	           -0.008199	           -0.016718
            1.308000	         -150.778698	          680.767778	           22.257925	            0.141844	            0.003470	           -0.322269	           -0.727015	            3.282484	            0.107322	            0.000214	           -0.328244	            0.035086	            0.905632	            0.000990	           -0.250706	            0.001346	            0.001402	            0.087380
            1.309000	         -151.015939	          684.593900	           23.335567	            0.142113	            0.003470	           -0.322412	           -0.732952	            3.322661	            0.113259	           -0.057604	            1.031818	           -0.013698	            0.905632	            0.000990	           -0.250706	            0.052437	           -0.001921	           -0.017150
            1.310000	         -151.184948	          688.262823	           24.481676	            0.142102	            0.003470	           -0.322612	           -0.735316	            3.347494	            0.119071	            0.031928	            0.071278	           -0.009578	            0.905632	            0.000990	           -0.250706	           -0.015217	            0.002984	            0.107850
            1.311000	         -151.405997	          692.250756	           25.460409	            0.142222	            0.003470	           -0.322600	           -0.749607	            3.427313	            0.126054	           -0.007292	           -0.247786	            0.012240	            0.905632	            0.000990	           -0.250706	            0.018250	            0.016514	            0.025121
            1.312000	         -151.513607	          695.997981	           26.560796	            0.142375	            0.003470	           -0.322726	           -0.757634	            3.480291	            0.132815	           -0.021757	            0.072182	           -0.040608	            0.905632	            0.000990	           -0.250706	            0.018326	            0.001697	            0.024966
            1.313000	         -151.767736	          699.426003	           27.751990	            0.142574	            0.003469	           -0.322735	           -0.762511	            3.514055	            0.139431	            0.009049	            0.151247	           -0.009626	            0.905632	            0.000990	           -0.250706	           -0.099009	            0.003929	           -0.037636
            1.314000	         -151.966300	          703.334323	           28.860518	            0.142643	            0.003469	           -0.322788	           -0.767168	            3.550625	            0.145696	            0.054786	            0.070706	            0.074658	            0.905632	            0.000990	           -0.250706	           -0.015333	           -0.008595	            0.149441
